<mxfile host="65bd71144e">
    <diagram id="tAfO24RYkmiWLKCQ2THT" name="ページ1">
        <mxGraphModel dx="400" dy="877" grid="1" gridSize="10" guides="1" tooltips="1" connect="1" arrows="1" fold="1" page="1" pageScale="1" pageWidth="827" pageHeight="1169" math="0" shadow="0">
            <root>
                <mxCell id="0"/>
                <mxCell id="1" parent="0"/>
                <mxCell id="17" value="" style="rounded=0;whiteSpace=wrap;html=1;fillColor=none;" vertex="1" parent="1">
                    <mxGeometry x="60" y="90" width="230" height="210" as="geometry"/>
                </mxCell>
                <mxCell id="18" value="リバーシで学ぶアプリケーション入門" style="rounded=0;whiteSpace=wrap;html=1;fillColor=none;" vertex="1" parent="1">
                    <mxGeometry x="60" y="90" width="230" height="30" as="geometry"/>
                </mxCell>
                <mxCell id="19" value="対戦する" style="rounded=1;whiteSpace=wrap;html=1;fillColor=none;" vertex="1" parent="1">
                    <mxGeometry x="115" y="130" width="120" height="25" as="geometry"/>
                </mxCell>
                <mxCell id="21" value="過去の対戦結果" style="rounded=0;whiteSpace=wrap;html=1;fillColor=none;" vertex="1" parent="1">
                    <mxGeometry x="85" y="180" width="180" height="90" as="geometry"/>
                </mxCell>
                <mxCell id="23" value="" style="rounded=0;whiteSpace=wrap;html=1;fillColor=none;" vertex="1" parent="1">
                    <mxGeometry x="60" y="360" width="230" height="210" as="geometry"/>
                </mxCell>
                <mxCell id="24" value="リバーシで学ぶアプリケーション入門" style="rounded=0;whiteSpace=wrap;html=1;fillColor=none;" vertex="1" parent="1">
                    <mxGeometry x="60" y="360" width="230" height="30" as="geometry"/>
                </mxCell>
                <mxCell id="25" value="白の番はスキップ" style="rounded=1;whiteSpace=wrap;html=1;fillColor=none;" vertex="1" parent="1">
                    <mxGeometry x="115" y="400" width="120" height="25" as="geometry"/>
                </mxCell>
                <mxCell id="26" value="盤面" style="rounded=0;whiteSpace=wrap;html=1;fillColor=none;" vertex="1" parent="1">
                    <mxGeometry x="85" y="440" width="180" height="90" as="geometry"/>
                </mxCell>
                <mxCell id="27" value="次は黒の番です" style="rounded=1;whiteSpace=wrap;html=1;fillColor=none;shadow=0;strokeColor=none;" vertex="1" parent="1">
                    <mxGeometry x="115" y="540" width="120" height="25" as="geometry"/>
                </mxCell>
            </root>
        </mxGraphModel>
    </diagram>
</mxfile>